<?xml version="1.0" encoding="utf-8"?>
<!-- Generator: Adobe Illustrator 28.2.0, SVG Export Plug-In . SVG Version: 6.00 Build 0)  -->
<svg version="1.1" id="Layer_1" xmlns="http://www.w3.org/2000/svg" xmlns:xlink="http://www.w3.org/1999/xlink" x="0px" y="0px"
	 viewBox="0 0 612 792" style="enable-background:new 0 0 612 792;" xml:space="preserve">
<style type="text/css">
	.st0{fill:url(#SVGID_1_);}
	.st1{fill:#FFFFFF;}
	.st2{fill:#FEEA3A;}
	.st3{font-family:'Montserrat-Medium';}
	.st4{font-size:43.3914px;}
	.st5{font-size:33px;}
</style>
<g>
	<g>
		<linearGradient id="SVGID_1_" gradientUnits="userSpaceOnUse" x1="359.9033" y1="302.4758" x2="289.0644" y2="302.4758">
			<stop  offset="0" style="stop-color:#FEEA3A"/>
			<stop  offset="0.5475" style="stop-color:#000000"/>
		</linearGradient>
		<path class="st0" d="M289.06,260.69v83.56h51.49c0,0,30.11-8.07,15.05-41.78c0,0,16.15-30.22-14.18-41.78H289.06z"/>
		<path class="st1" d="M308.14,280.11v13.09h28.8c0,0,6.98-5.89,0-13.09H308.14z"/>
		<path class="st2" d="M291.34,263.31v78.76h13.75v-32.51h15.05c0,0,12-6.76,0-14.18H305.3l-0.44-18.76l22.04-0.44
			c0,0,11.35-5.67,0-12.87H291.34z"/>
		<path class="st1" d="M308.14,314.58v13.09h28.8c0,0,6.98-5.89,0-13.09H308.14z"/>
	</g>
	<g>
		<text transform="matrix(1 0 0 1 368.1516 303.5254)" class="st1 st3 st4">FUNEL</text>
		<text transform="matrix(1 0 0 1 454.6993 329.6292)" class="st1 st3 st5">Boy</text>
	</g>
</g>
</svg>
